<?xml version="1.0" encoding="UTF-8"?><svg id="uuid-718a5ff0-6dfb-4c53-8da5-0acb844129c0" xmlns="http://www.w3.org/2000/svg" viewBox="0 0 112 43.73"><g id="uuid-eaa878b5-ce18-4aea-9bc9-986e157f6041"><path d="M3.59,19.99v4.38H1.17v-11.42h3.33c1.55,0,2.7.28,3.45.85s1.12,1.42,1.12,2.57c0,.67-.18,1.27-.55,1.79s-.89.93-1.57,1.23c1.72,2.57,2.84,4.23,3.36,4.98h-2.69l-2.73-4.38h-1.29ZM3.59,18.02h.78c.77,0,1.33-.13,1.7-.38s.55-.66.55-1.2-.19-.93-.56-1.16-.95-.34-1.73-.34h-.73v3.09Z" style="fill:#2c3e50; stroke-width:0px;"/><path d="M18.31,24.38h-6.58v-11.42h6.58v1.98h-4.16v2.51h3.87v1.98h-3.87v2.95h4.16v2Z" style="fill:#2c3e50; stroke-width:0px;"/><path d="M25.54,14.81c-.91,0-1.62.34-2.12,1.03s-.75,1.64-.75,2.86c0,2.55.96,3.82,2.87,3.82.8,0,1.77-.2,2.91-.6v2.03c-.94.39-1.98.59-3.14.59-1.66,0-2.93-.5-3.81-1.51s-1.32-2.45-1.32-4.34c0-1.19.22-2.23.65-3.12s1.05-1.58,1.86-2.05,1.76-.71,2.85-.71,2.22.27,3.34.8l-.78,1.97c-.43-.2-.86-.38-1.29-.53s-.86-.23-1.27-.23Z" style="fill:#2c3e50; stroke-width:0px;"/><path d="M40.25,24.38h-2.41v-4.93h-4.52v4.93h-2.42v-11.42h2.42v4.48h4.52v-4.48h2.41v11.42Z" style="fill:#2c3e50; stroke-width:0px;"/><path d="M47.54,24.38h-2.42v-9.41h-3.1v-2.02h8.62v2.02h-3.1v9.41Z" style="fill:#2c3e50; stroke-width:0px;"/><path d="M59.14,21.2c0,1.03-.37,1.84-1.11,2.44s-1.77.89-3.1.89c-1.22,0-2.3-.23-3.23-.69v-2.25c.77.34,1.42.59,1.96.73s1.02.21,1.46.21c.53,0,.94-.1,1.22-.3s.43-.51.43-.91c0-.22-.06-.42-.19-.6s-.31-.34-.55-.5-.74-.42-1.48-.77c-.7-.33-1.22-.64-1.57-.95s-.63-.65-.84-1.05-.31-.87-.31-1.41c0-1.01.34-1.8,1.03-2.38s1.63-.87,2.84-.87c.59,0,1.16.07,1.7.21s1.1.34,1.69.59l-.78,1.88c-.61-.25-1.11-.42-1.51-.52s-.79-.15-1.18-.15c-.46,0-.81.11-1.05.32s-.37.49-.37.84c0,.21.05.4.15.56s.26.31.47.46.73.42,1.54.8c1.07.51,1.8,1.02,2.2,1.54s.59,1.14.59,1.89Z" style="fill:#2c3e50; stroke-width:0px;"/><path d="M68.2,24.38l-.83-2.72h-4.16l-.83,2.72h-2.61l4.03-11.47h2.96l4.05,11.47h-2.61ZM66.79,19.63c-.77-2.46-1.2-3.86-1.29-4.18s-.17-.58-.21-.77c-.17.67-.66,2.32-1.48,4.95h2.98Z" style="fill:#2c3e50; stroke-width:0px;"/><path d="M81.43,24.38h-2.75l-2.99-4.81-1.02.73v4.08h-2.42v-11.42h2.42v5.23l.95-1.34,3.09-3.88h2.69l-3.98,5.05,4.02,6.37Z" style="fill:#2c3e50; stroke-width:0px;"/><path d="M87.28,24.38h-2.42v-9.41h-3.1v-2.02h8.62v2.02h-3.1v9.41Z" style="fill:#2c3e50; stroke-width:0px;"/><path d="M98.72,24.38h-6.58v-11.42h6.58v1.98h-4.16v2.51h3.87v1.98h-3.87v2.95h4.16v2Z" style="fill:#2c3e50; stroke-width:0px;"/><path d="M111.23,24.38h-3.08l-4.97-8.64h-.07c.1,1.53.15,2.61.15,3.27v5.38h-2.16v-11.42h3.05l4.96,8.55h.05c-.08-1.48-.12-2.53-.12-3.15v-5.41h2.18v11.42Z" style="fill:#2c3e50; stroke-width:0px;"/><path d="M10.36,43.58h-2.75l-2.99-4.81-1.02.73v4.08H1.17v-11.42h2.42v5.23l.95-1.34,3.09-3.88h2.69l-3.98,5.05,4.02,6.37Z" style="fill:#2c3e50; stroke-width:0px;"/><path d="M17.15,43.58l-.46-1.19h-.06c-.4.51-.81.86-1.24,1.05-.42.19-.98.29-1.66.29-.84,0-1.5-.24-1.98-.72s-.72-1.16-.72-2.05.32-1.61.97-2.05c.65-.44,1.63-.68,2.93-.73l1.52-.05v-.38c0-.89-.45-1.33-1.36-1.33-.7,0-1.52.21-2.46.63l-.79-1.61c1.01-.53,2.12-.79,3.34-.79s2.07.26,2.7.77.94,1.29.94,2.33v5.82h-1.66ZM16.45,39.53l-.92.03c-.69.02-1.21.15-1.55.38s-.51.58-.51,1.05c0,.67.39,1.01,1.16,1.01.55,0,.99-.16,1.32-.48s.5-.74.5-1.27v-.72Z" style="fill:#2c3e50; stroke-width:0px;"/><path d="M26.15,34.68c.32,0,.59.02.8.07l-.18,2.23c-.19-.05-.43-.08-.7-.08-.76,0-1.35.2-1.78.59s-.64.94-.64,1.64v4.45h-2.38v-8.73h1.8l.35,1.47h.12c.27-.49.64-.88,1.1-1.18s.96-.45,1.5-.45Z" style="fill:#2c3e50; stroke-width:0px;"/><path d="M30.92,43.58h-2.38v-12.16h2.38v12.16Z" style="fill:#2c3e50; stroke-width:0px;"/><path d="M46.95,43.58h-2.75l-2.99-4.81-1.02.73v4.08h-2.42v-11.42h2.42v5.23l.95-1.34,3.09-3.88h2.69l-3.98,5.05,4.02,6.37Z" style="fill:#2c3e50; stroke-width:0px;"/><path d="M53.08,34.68c.32,0,.59.02.8.07l-.18,2.23c-.19-.05-.43-.08-.7-.08-.76,0-1.35.2-1.78.59s-.64.94-.64,1.64v4.45h-2.38v-8.73h1.8l.35,1.47h.12c.27-.49.64-.88,1.1-1.18s.96-.45,1.5-.45Z" style="fill:#2c3e50; stroke-width:0px;"/><path d="M61.01,43.58l-.46-1.19h-.06c-.4.51-.81.86-1.24,1.05-.42.19-.98.29-1.66.29-.84,0-1.5-.24-1.98-.72s-.72-1.16-.72-2.05.32-1.61.97-2.05c.65-.44,1.63-.68,2.93-.73l1.52-.05v-.38c0-.89-.45-1.33-1.36-1.33-.7,0-1.52.21-2.46.63l-.79-1.61c1.01-.53,2.12-.79,3.34-.79s2.07.26,2.7.77.94,1.29.94,2.33v5.82h-1.66ZM60.31,39.53l-.92.03c-.69.02-1.21.15-1.55.38s-.51.58-.51,1.05c0,.67.39,1.01,1.16,1.01.55,0,.99-.16,1.32-.48s.5-.74.5-1.27v-.72Z" style="fill:#2c3e50; stroke-width:0px;"/><path d="M71.32,43.58l-.32-1.12h-.12c-.26.41-.62.72-1.09.94-.47.22-1,.33-1.6.33-1.03,0-1.8-.28-2.32-.82-.52-.55-.78-1.34-.78-2.37v-5.7h2.38v5.1c0,.63.11,1.1.34,1.42.22.31.58.47,1.07.47.67,0,1.15-.22,1.45-.67.3-.44.45-1.18.45-2.21v-4.11h2.38v8.73h-1.83Z" style="fill:#2c3e50; stroke-width:0px;"/><path d="M81.74,40.98c0,.9-.31,1.58-.93,2.05s-1.55.7-2.79.7c-.64,0-1.18-.04-1.62-.13-.45-.09-.87-.21-1.26-.38v-1.97c.44.21.94.38,1.5.52s1.04.21,1.46.21c.86,0,1.3-.25,1.3-.75,0-.19-.06-.34-.17-.46-.11-.12-.31-.25-.59-.4-.28-.15-.66-.32-1.12-.52-.67-.28-1.17-.54-1.48-.78s-.54-.51-.69-.82c-.14-.31-.21-.69-.21-1.14,0-.78.3-1.38.9-1.8s1.45-.64,2.56-.64,2.08.23,3.07.69l-.72,1.72c-.44-.19-.85-.34-1.23-.46s-.77-.18-1.16-.18c-.7,0-1.05.19-1.05.57,0,.21.11.4.34.55s.72.39,1.49.7c.68.28,1.18.53,1.5.77s.55.52.7.83.23.68.23,1.12Z" style="fill:#2c3e50; stroke-width:0px;"/><line y1="2.5" x2="112" y2="2.5" style="fill:none; stroke:#c85545; stroke-miterlimit:10; stroke-width:5px;"/></g></svg>